<svg width="1600" height="690" viewBox="0 0 1600 690" fill="none" xmlns="http://www.w3.org/2000/svg">
<rect x="1512.54" y="1833.01" width="63.8392" height="1401.6" transform="rotate(-165 1512.54 1833.01)" fill="url(#paint0_linear)"/>
<rect x="1389.21" y="1799.96" width="63.8392" height="1401.6" transform="rotate(-165 1389.21 1799.96)" fill="url(#paint1_linear)"/>
<rect x="1265.89" y="1766.92" width="63.8392" height="1354.22" transform="rotate(-165 1265.89 1766.92)" fill="url(#paint2_linear)"/>
<rect x="1142.56" y="1733.87" width="63.8392" height="1305.27" transform="rotate(-165 1142.56 1733.87)" fill="url(#paint3_linear)"/>
<rect x="1019.23" y="1700.82" width="63.8392" height="1401.6" transform="rotate(-165 1019.23 1700.82)" fill="url(#paint4_linear)"/>
<rect x="895.902" y="1667.78" width="63.8392" height="1387.94" transform="rotate(-165 895.902 1667.78)" fill="url(#paint5_linear)"/>
<rect x="772.574" y="1634.73" width="63.8392" height="1355.05" transform="rotate(-165 772.574 1634.73)" fill="url(#paint6_linear)"/>
<rect x="649.247" y="1601.69" width="63.8392" height="1328.47" transform="rotate(-165 649.247 1601.69)" fill="url(#paint7_linear)"/>
<rect x="525.919" y="1568.64" width="63.8392" height="1401.6" transform="rotate(-165 525.919 1568.64)" fill="url(#paint8_linear)"/>
<rect x="402.591" y="1535.6" width="63.8392" height="1360.89" transform="rotate(-165 402.591 1535.6)" fill="url(#paint9_linear)"/>
<rect x="279.263" y="1502.55" width="63.8392" height="1303.61" transform="rotate(-165 279.263 1502.55)" fill="url(#paint10_linear)"/>
<rect x="155.935" y="1469.5" width="63.8392" height="1364.03" transform="rotate(-165 155.935 1469.5)" fill="url(#paint11_linear)"/>
<rect x="32.6074" y="1436.46" width="63.8392" height="1304.52" transform="rotate(-165 32.6074 1436.46)" fill="url(#paint12_linear)"/>
<rect x="-90.7202" y="1403.41" width="63.8392" height="1340.76" transform="rotate(-165 -90.7202 1403.41)" fill="url(#paint13_linear)"/>
<rect x="-214.048" y="1370.37" width="63.8392" height="1307.27" transform="rotate(-165 -214.048 1370.37)" fill="url(#paint14_linear)"/>
<rect x="1512.54" y="1833.01" width="63.8392" height="1401.6" transform="rotate(-165 1512.54 1833.01)" fill="url(#paint15_linear)"/>
<rect x="1389.21" y="1799.96" width="63.8392" height="1401.6" transform="rotate(-165 1389.21 1799.96)" fill="url(#paint16_linear)"/>
<rect x="1265.89" y="1766.92" width="63.8392" height="1354.22" transform="rotate(-165 1265.89 1766.92)" fill="url(#paint17_linear)"/>
<rect x="1142.56" y="1733.87" width="63.8392" height="1305.27" transform="rotate(-165 1142.56 1733.87)" fill="url(#paint18_linear)"/>
<rect x="1019.23" y="1700.82" width="63.8392" height="1401.6" transform="rotate(-165 1019.23 1700.82)" fill="url(#paint19_linear)"/>
<rect x="895.902" y="1667.78" width="63.8392" height="1387.94" transform="rotate(-165 895.902 1667.78)" fill="url(#paint20_linear)"/>
<rect x="772.574" y="1634.73" width="63.8392" height="1355.05" transform="rotate(-165 772.574 1634.73)" fill="url(#paint21_linear)"/>
<rect x="649.247" y="1601.69" width="63.8392" height="1328.47" transform="rotate(-165 649.247 1601.69)" fill="url(#paint22_linear)"/>
<rect x="525.919" y="1568.64" width="63.8392" height="1401.6" transform="rotate(-165 525.919 1568.64)" fill="url(#paint23_linear)"/>
<rect x="402.591" y="1535.6" width="63.8392" height="1360.89" transform="rotate(-165 402.591 1535.6)" fill="url(#paint24_linear)"/>
<rect x="279.263" y="1502.55" width="63.8392" height="1303.61" transform="rotate(-165 279.263 1502.55)" fill="url(#paint25_linear)"/>
<rect x="155.935" y="1469.5" width="63.8392" height="1364.03" transform="rotate(-165 155.935 1469.5)" fill="url(#paint26_linear)"/>
<rect x="32.6074" y="1436.46" width="63.8392" height="1304.52" transform="rotate(-165 32.6074 1436.46)" fill="url(#paint27_linear)"/>
<rect x="-90.7202" y="1403.41" width="63.8392" height="1340.76" transform="rotate(-165 -90.7202 1403.41)" fill="url(#paint28_linear)"/>
<rect x="-214.048" y="1370.37" width="63.8392" height="1307.27" transform="rotate(-165 -214.048 1370.37)" fill="url(#paint29_linear)"/>
<rect x="1450.88" y="1816.48" width="63.8392" height="1401.6" transform="rotate(-165 1450.88 1816.48)" fill="url(#paint30_linear)"/>
<rect x="1327.55" y="1783.44" width="63.8392" height="1401.6" transform="rotate(-165 1327.55 1783.44)" fill="url(#paint31_linear)"/>
<rect x="1204.22" y="1750.39" width="63.8392" height="1401.6" transform="rotate(-165 1204.22 1750.39)" fill="url(#paint32_linear)"/>
<rect x="1080.89" y="1717.35" width="63.8392" height="1401.6" transform="rotate(-165 1080.89 1717.35)" fill="url(#paint33_linear)"/>
<rect x="957.566" y="1684.3" width="63.8392" height="1401.6" transform="rotate(-165 957.566 1684.3)" fill="url(#paint34_linear)"/>
<rect x="834.238" y="1651.26" width="63.8392" height="1401.6" transform="rotate(-165 834.238 1651.26)" fill="url(#paint35_linear)"/>
<rect x="710.911" y="1618.21" width="63.8392" height="1401.6" transform="rotate(-165 710.911 1618.21)" fill="url(#paint36_linear)"/>
<rect x="587.583" y="1585.16" width="63.8392" height="1401.6" transform="rotate(-165 587.583 1585.16)" fill="url(#paint37_linear)"/>
<rect x="464.255" y="1552.12" width="63.8392" height="1401.6" transform="rotate(-165 464.255 1552.12)" fill="url(#paint38_linear)"/>
<rect x="340.927" y="1519.07" width="63.8392" height="1401.6" transform="rotate(-165 340.927 1519.07)" fill="url(#paint39_linear)"/>
<rect x="217.599" y="1486.03" width="63.8392" height="1401.6" transform="rotate(-165 217.599 1486.03)" fill="url(#paint40_linear)"/>
<rect x="94.2713" y="1452.98" width="63.8392" height="1401.6" transform="rotate(-165 94.2713 1452.98)" fill="url(#paint41_linear)"/>
<rect x="-29.0564" y="1419.94" width="63.8392" height="1401.6" transform="rotate(-165 -29.0564 1419.94)" fill="url(#paint42_linear)"/>
<rect x="-152.384" y="1386.89" width="63.8392" height="1401.6" transform="rotate(-165 -152.384 1386.89)" fill="url(#paint43_linear)"/>
<defs>
<linearGradient id="paint0_linear" x1="1544.46" y1="1833.01" x2="1544.46" y2="3234.61" gradientUnits="userSpaceOnUse">
<stop stop-color="#CF1DDB"/>
<stop offset="0.859375" stop-color="#6116EB"/>
<stop offset="1" stop-color="#2F016E"/>
</linearGradient>
<linearGradient id="paint1_linear" x1="1421.13" y1="1799.96" x2="1421.13" y2="3201.56" gradientUnits="userSpaceOnUse">
<stop stop-color="#CF1DDB"/>
<stop offset="0.859375" stop-color="#6116EB"/>
<stop offset="1" stop-color="#2F016E"/>
</linearGradient>
<linearGradient id="paint2_linear" x1="1297.81" y1="1766.92" x2="1297.81" y2="3121.13" gradientUnits="userSpaceOnUse">
<stop stop-color="#CF1DDB"/>
<stop offset="0.859375" stop-color="#6116EB"/>
<stop offset="1" stop-color="#2F016E"/>
</linearGradient>
<linearGradient id="paint3_linear" x1="1174.48" y1="1733.87" x2="1174.48" y2="3039.14" gradientUnits="userSpaceOnUse">
<stop stop-color="#CF1DDB"/>
<stop offset="0.859375" stop-color="#6116EB"/>
<stop offset="1" stop-color="#2F016E"/>
</linearGradient>
<linearGradient id="paint4_linear" x1="1051.15" y1="1700.82" x2="1051.15" y2="3102.43" gradientUnits="userSpaceOnUse">
<stop stop-color="#CF1DDB"/>
<stop offset="0.859375" stop-color="#6116EB"/>
<stop offset="1" stop-color="#2F016E"/>
</linearGradient>
<linearGradient id="paint5_linear" x1="927.822" y1="1667.78" x2="927.822" y2="3055.72" gradientUnits="userSpaceOnUse">
<stop stop-color="#CF1DDB"/>
<stop offset="0.859375" stop-color="#6116EB"/>
<stop offset="1" stop-color="#2F016E"/>
</linearGradient>
<linearGradient id="paint6_linear" x1="804.494" y1="1634.73" x2="804.494" y2="2989.78" gradientUnits="userSpaceOnUse">
<stop stop-color="#CF1DDB"/>
<stop offset="0.859375" stop-color="#6116EB"/>
<stop offset="1" stop-color="#2F016E"/>
</linearGradient>
<linearGradient id="paint7_linear" x1="681.166" y1="1601.69" x2="681.166" y2="2930.16" gradientUnits="userSpaceOnUse">
<stop stop-color="#CF1DDB"/>
<stop offset="0.859375" stop-color="#6116EB"/>
<stop offset="1" stop-color="#2F016E"/>
</linearGradient>
<linearGradient id="paint8_linear" x1="557.838" y1="1568.64" x2="557.838" y2="2970.24" gradientUnits="userSpaceOnUse">
<stop stop-color="#CF1DDB"/>
<stop offset="0.859375" stop-color="#6116EB"/>
<stop offset="1" stop-color="#2F016E"/>
</linearGradient>
<linearGradient id="paint9_linear" x1="434.511" y1="1535.6" x2="434.511" y2="2896.49" gradientUnits="userSpaceOnUse">
<stop stop-color="#CF1DDB"/>
<stop offset="0.859375" stop-color="#6116EB"/>
<stop offset="1" stop-color="#2F016E"/>
</linearGradient>
<linearGradient id="paint10_linear" x1="311.183" y1="1502.55" x2="311.183" y2="2806.16" gradientUnits="userSpaceOnUse">
<stop stop-color="#CF1DDB"/>
<stop offset="0.859375" stop-color="#6116EB"/>
<stop offset="1" stop-color="#2F016E"/>
</linearGradient>
<linearGradient id="paint11_linear" x1="187.855" y1="1469.5" x2="187.855" y2="2833.53" gradientUnits="userSpaceOnUse">
<stop stop-color="#CF1DDB"/>
<stop offset="0.859375" stop-color="#6116EB"/>
<stop offset="1" stop-color="#2F016E"/>
</linearGradient>
<linearGradient id="paint12_linear" x1="64.527" y1="1436.46" x2="64.527" y2="2740.98" gradientUnits="userSpaceOnUse">
<stop stop-color="#CF1DDB"/>
<stop offset="0.859375" stop-color="#6116EB"/>
<stop offset="1" stop-color="#2F016E"/>
</linearGradient>
<linearGradient id="paint13_linear" x1="-58.8007" y1="1403.41" x2="-58.8007" y2="2744.17" gradientUnits="userSpaceOnUse">
<stop stop-color="#CF1DDB"/>
<stop offset="0.859375" stop-color="#6116EB"/>
<stop offset="1" stop-color="#2F016E"/>
</linearGradient>
<linearGradient id="paint14_linear" x1="-182.129" y1="1370.37" x2="-182.129" y2="2677.64" gradientUnits="userSpaceOnUse">
<stop stop-color="#CF1DDB"/>
<stop offset="0.859375" stop-color="#6116EB"/>
<stop offset="1" stop-color="#2F016E"/>
</linearGradient>
<linearGradient id="paint15_linear" x1="1544.46" y1="1833.01" x2="1544.46" y2="3234.61" gradientUnits="userSpaceOnUse">
<stop stop-color="#6116EB"/>
<stop offset="0.75" stop-color="#CF1DDB"/>
<stop offset="1" stop-color="#2F016E"/>
</linearGradient>
<linearGradient id="paint16_linear" x1="1421.13" y1="1799.96" x2="1421.13" y2="3201.56" gradientUnits="userSpaceOnUse">
<stop stop-color="#6116EB"/>
<stop offset="0.75" stop-color="#CF1DDB"/>
<stop offset="1" stop-color="#2F016E"/>
</linearGradient>
<linearGradient id="paint17_linear" x1="1297.81" y1="1766.92" x2="1297.81" y2="3121.13" gradientUnits="userSpaceOnUse">
<stop stop-color="#6116EB"/>
<stop offset="0.75" stop-color="#CF1DDB"/>
<stop offset="1" stop-color="#2F016E"/>
</linearGradient>
<linearGradient id="paint18_linear" x1="1174.48" y1="1733.87" x2="1174.48" y2="3039.14" gradientUnits="userSpaceOnUse">
<stop stop-color="#6116EB"/>
<stop offset="0.75" stop-color="#CF1DDB"/>
<stop offset="1" stop-color="#2F016E"/>
</linearGradient>
<linearGradient id="paint19_linear" x1="1051.15" y1="1700.82" x2="1051.15" y2="3102.43" gradientUnits="userSpaceOnUse">
<stop stop-color="#6116EB"/>
<stop offset="0.75" stop-color="#CF1DDB"/>
<stop offset="1" stop-color="#2F016E"/>
</linearGradient>
<linearGradient id="paint20_linear" x1="927.822" y1="1667.78" x2="927.822" y2="3055.72" gradientUnits="userSpaceOnUse">
<stop stop-color="#6116EB"/>
<stop offset="0.75" stop-color="#CF1DDB"/>
<stop offset="1" stop-color="#2F016E"/>
</linearGradient>
<linearGradient id="paint21_linear" x1="804.494" y1="1634.73" x2="804.494" y2="2989.78" gradientUnits="userSpaceOnUse">
<stop stop-color="#6116EB"/>
<stop offset="0.75" stop-color="#CF1DDB"/>
<stop offset="1" stop-color="#2F016E"/>
</linearGradient>
<linearGradient id="paint22_linear" x1="681.166" y1="1601.69" x2="681.166" y2="2930.16" gradientUnits="userSpaceOnUse">
<stop stop-color="#6116EB"/>
<stop offset="0.75" stop-color="#CF1DDB"/>
<stop offset="1" stop-color="#2F016E"/>
</linearGradient>
<linearGradient id="paint23_linear" x1="557.838" y1="1568.64" x2="557.838" y2="2970.24" gradientUnits="userSpaceOnUse">
<stop stop-color="#6116EB"/>
<stop offset="0.75" stop-color="#CF1DDB"/>
<stop offset="1" stop-color="#2F016E"/>
</linearGradient>
<linearGradient id="paint24_linear" x1="434.511" y1="1535.6" x2="434.511" y2="2896.49" gradientUnits="userSpaceOnUse">
<stop stop-color="#6116EB"/>
<stop offset="0.75" stop-color="#CF1DDB"/>
<stop offset="1" stop-color="#2F016E"/>
</linearGradient>
<linearGradient id="paint25_linear" x1="311.183" y1="1502.55" x2="311.183" y2="2806.16" gradientUnits="userSpaceOnUse">
<stop stop-color="#6116EB"/>
<stop offset="0.75" stop-color="#CF1DDB"/>
<stop offset="1" stop-color="#2F016E"/>
</linearGradient>
<linearGradient id="paint26_linear" x1="187.855" y1="1469.5" x2="187.855" y2="2833.53" gradientUnits="userSpaceOnUse">
<stop stop-color="#6116EB"/>
<stop offset="0.75" stop-color="#CF1DDB"/>
<stop offset="1" stop-color="#2F016E"/>
</linearGradient>
<linearGradient id="paint27_linear" x1="64.527" y1="1436.46" x2="64.527" y2="2740.98" gradientUnits="userSpaceOnUse">
<stop stop-color="#6116EB"/>
<stop offset="0.75" stop-color="#CF1DDB"/>
<stop offset="1" stop-color="#2F016E"/>
</linearGradient>
<linearGradient id="paint28_linear" x1="-58.8007" y1="1403.41" x2="-58.8007" y2="2744.17" gradientUnits="userSpaceOnUse">
<stop stop-color="#6116EB"/>
<stop offset="0.75" stop-color="#CF1DDB"/>
<stop offset="1" stop-color="#2F016E"/>
</linearGradient>
<linearGradient id="paint29_linear" x1="-182.129" y1="1370.37" x2="-182.129" y2="2677.64" gradientUnits="userSpaceOnUse">
<stop stop-color="#6116EB"/>
<stop offset="0.75" stop-color="#CF1DDB"/>
<stop offset="1" stop-color="#2F016E"/>
</linearGradient>
<linearGradient id="paint30_linear" x1="1482.8" y1="1816.48" x2="1482.8" y2="3218.09" gradientUnits="userSpaceOnUse">
<stop stop-color="#3E0090"/>
<stop offset="1" stop-color="#2F016E"/>
</linearGradient>
<linearGradient id="paint31_linear" x1="1359.47" y1="1783.44" x2="1359.47" y2="3185.04" gradientUnits="userSpaceOnUse">
<stop stop-color="#3E0090"/>
<stop offset="1" stop-color="#2F016E"/>
</linearGradient>
<linearGradient id="paint32_linear" x1="1236.14" y1="1750.39" x2="1236.14" y2="3152" gradientUnits="userSpaceOnUse">
<stop stop-color="#3E0090"/>
<stop offset="1" stop-color="#2F016E"/>
</linearGradient>
<linearGradient id="paint33_linear" x1="1112.81" y1="1717.35" x2="1112.81" y2="3118.95" gradientUnits="userSpaceOnUse">
<stop stop-color="#3E0090"/>
<stop offset="1" stop-color="#2F016E"/>
</linearGradient>
<linearGradient id="paint34_linear" x1="989.486" y1="1684.3" x2="989.486" y2="3085.9" gradientUnits="userSpaceOnUse">
<stop stop-color="#3E0090"/>
<stop offset="1" stop-color="#2F016E"/>
</linearGradient>
<linearGradient id="paint35_linear" x1="866.158" y1="1651.26" x2="866.158" y2="3052.86" gradientUnits="userSpaceOnUse">
<stop stop-color="#3E0090"/>
<stop offset="1" stop-color="#2F016E"/>
</linearGradient>
<linearGradient id="paint36_linear" x1="742.83" y1="1618.21" x2="742.83" y2="3019.81" gradientUnits="userSpaceOnUse">
<stop stop-color="#3E0090"/>
<stop offset="1" stop-color="#2F016E"/>
</linearGradient>
<linearGradient id="paint37_linear" x1="619.502" y1="1585.16" x2="619.502" y2="2986.77" gradientUnits="userSpaceOnUse">
<stop stop-color="#3E0090"/>
<stop offset="1" stop-color="#2F016E"/>
</linearGradient>
<linearGradient id="paint38_linear" x1="496.174" y1="1552.12" x2="496.174" y2="2953.72" gradientUnits="userSpaceOnUse">
<stop stop-color="#3E0090"/>
<stop offset="1" stop-color="#2F016E"/>
</linearGradient>
<linearGradient id="paint39_linear" x1="372.847" y1="1519.07" x2="372.847" y2="2920.68" gradientUnits="userSpaceOnUse">
<stop stop-color="#3E0090"/>
<stop offset="1" stop-color="#2F016E"/>
</linearGradient>
<linearGradient id="paint40_linear" x1="249.519" y1="1486.03" x2="249.519" y2="2887.63" gradientUnits="userSpaceOnUse">
<stop stop-color="#3E0090"/>
<stop offset="1" stop-color="#2F016E"/>
</linearGradient>
<linearGradient id="paint41_linear" x1="126.191" y1="1452.98" x2="126.191" y2="2854.58" gradientUnits="userSpaceOnUse">
<stop stop-color="#3E0090"/>
<stop offset="1" stop-color="#2F016E"/>
</linearGradient>
<linearGradient id="paint42_linear" x1="2.86321" y1="1419.94" x2="2.86321" y2="2821.54" gradientUnits="userSpaceOnUse">
<stop stop-color="#3E0090"/>
<stop offset="1" stop-color="#2F016E"/>
</linearGradient>
<linearGradient id="paint43_linear" x1="-120.465" y1="1386.89" x2="-120.465" y2="2788.49" gradientUnits="userSpaceOnUse">
<stop stop-color="#3E0090"/>
<stop offset="1" stop-color="#2F016E"/>
</linearGradient>
</defs>
</svg>
