<svg width="150" height="37" viewBox="0 0 150 37" fill="none" xmlns="http://www.w3.org/2000/svg">
<g clip-path="url(#clip0)">
<path fill-rule="evenodd" clip-rule="evenodd" d="M148.163 25.3351C147.699 24.9991 147.331 24.9511 147.027 25.5912C141.81 36.8726 133.025 31.2399 133.905 31.736C135.858 30.8399 140.978 26.7433 140.21 21.0626C139.746 17.5901 136.77 16.0539 133.601 16.614C128.081 17.5741 126.064 23.5269 127.088 28.7916C127.264 29.7037 127.585 30.4398 127.921 31.1759C121.696 36.2486 119.216 26.6473 118.927 25.4952C118.912 25.4311 123.744 21.4146 125.088 11.8294C126.496 1.79609 123.296 -0.0441505 120.016 0.0198578C113.951 0.131872 112.319 12.7895 114.511 23.3349C114.335 23.3829 113.471 23.8629 112.095 23.9109C111.102 20.7905 106.862 18.0542 105.758 19.1103C102.989 21.7507 106.43 26.9033 108.862 27.3034C107.406 36.2806 98.2848 34.0563 99.9809 22.8068C102.941 17.3021 105.214 9.09304 104.798 4.14838C104.654 2.40417 103.357 0.0518619 100.429 0.163876C94.7963 0.387907 94.1883 13.0455 94.8443 22.0387C94.8124 21.8147 94.4923 23.1269 92.1878 23.7829C91.6438 20.7586 86.7633 17.7022 85.6112 19.1744C83.4669 21.9107 87.1954 26.7914 88.9555 27.1274C87.4994 36.1046 78.3783 33.8802 80.0744 22.6308C83.051 17.1261 85.3072 8.93301 84.9069 3.98839C84.7632 2.24415 83.4669 -0.108159 80.5383 0.00385573C74.9056 0.227885 74.2976 12.8855 74.9539 21.8787C74.9217 21.6547 74.6016 23.0149 72.2012 23.6549C72.1215 19.7184 67.2249 17.9262 66.0406 19.1744C63.9443 21.4146 66.5206 26.0072 68.9049 27.1274C67.4488 36.1046 58.3277 33.8802 60.0238 22.6308C62.9843 17.1261 65.2566 8.91702 64.8406 3.97237C64.7126 2.24415 63.4163 -0.108159 60.4877 0.00385573C54.855 0.227885 54.4072 13.5256 55.0632 22.5188C53.2068 30.4718 46.9822 40.3932 47.798 20.5025C47.8782 19.1103 47.9583 18.5823 47.2701 18.0542C46.7422 17.6542 45.5579 17.8462 44.9177 17.8622C44.1337 17.8942 43.9258 18.3582 43.7656 19.0463C43.3657 20.8385 43.2856 22.5828 43.2216 24.9671C43.1898 26.0872 43.0935 26.5993 42.6615 28.1195C42.2294 29.6397 39.7972 32.4081 38.453 31.944C36.5967 31.3039 37.2048 26.0712 37.5567 22.4708C37.845 19.6224 36.9168 18.3582 34.5485 17.8942C33.1563 17.6062 32.3082 17.6542 30.868 17.1901C29.4918 16.758 29.1878 14.1657 26.2754 15.0298C24.6752 15.5099 25.6994 18.8863 25.3153 21.3986C23.427 33.7362 19.5065 34.0723 17.6823 28.0875C25.8754 7.98889 20.0346 0.067864 16.6261 0.067864C13.0737 0.067864 9.00918 2.51618 10.7214 18.1982C9.88928 17.9582 9.63326 17.8302 8.70512 17.8302C3.53646 17.8142 0 22.0067 0 27.1754C0 32.3441 3.53646 36.5366 8.72115 36.5366C11.7775 36.5366 13.9218 35.1444 15.554 33.0001C16.6102 34.5203 17.9063 36.5686 20.2746 36.4726C27.3155 36.2006 29.3638 21.7507 29.6039 20.9346C30.3559 21.0466 31.076 21.2706 31.7641 21.3826C32.9163 21.5587 33.0123 22.0227 32.9803 23.1749C32.6763 33.0001 34.4845 36.4406 38.5972 36.4406C40.8852 36.4406 42.9337 34.1843 44.3418 32.5841C45.398 34.7604 47.0619 36.3766 49.3185 36.4406C54.7591 36.5686 56.8555 27.8955 56.6634 29.0316C56.5193 29.9277 58.4235 36.3766 64.0405 36.4086C70.9851 36.4406 72.2813 28.8076 72.4255 27.5274C72.4573 27.3034 72.4416 27.2714 72.4255 27.5274C72.4255 27.5434 72.4255 27.5754 72.4255 27.6074C74.6338 27.1914 75.7698 26.0232 75.7698 26.0232C75.7698 26.0232 77.546 36.5366 84.0911 36.4246C90.8919 36.2966 92.1878 29.3997 92.348 28.0555C92.3799 27.7674 92.3641 27.7355 92.348 28.0555C92.348 28.0715 92.348 28.0875 92.348 28.0875C94.9723 27.1274 95.6605 26.1833 95.6605 26.1833C95.6605 26.1833 97.0687 36.4886 103.981 36.5846C110.142 36.6648 112.43 30.3438 112.447 27.7035C113.487 27.7194 115.407 27.0794 115.359 27.0474C115.359 27.0474 117.615 36.0566 123.92 36.5206C126.881 36.7445 129.105 34.8564 130.369 33.9923C133.345 36.4086 143.251 39.4811 149.508 28.8716C150.404 27.3674 148.499 25.5592 148.163 25.3351ZM8.46509 33.0322C5.44072 33.0322 3.50446 30.2318 3.50446 27.2234C3.50446 24.215 5.28069 21.4146 8.3051 21.4146C9.66527 21.4146 10.4174 21.5587 11.4895 22.4868C11.6815 23.2389 12.2256 24.9831 12.4976 25.7832C12.8497 26.8394 13.2817 27.7515 13.6978 28.7276C13.0737 31.2559 11.0894 33.0322 8.46509 33.0322ZM15.8261 22.5668C15.698 22.3588 15.7301 22.4868 15.586 22.2948C15.042 20.7905 13.9698 17.4301 13.8418 13.6056C13.6978 9.28507 14.4179 4.2124 16.5461 4.2124C17.9864 4.2124 19.5225 14.4858 15.8261 22.5668ZM58.4074 18.0702C58.0716 15.5099 58.0555 4.0684 60.7921 4.38841C62.3122 4.9965 59.8317 15.7819 58.4074 18.0702ZM78.458 18.0702C78.1222 15.5099 78.1061 4.0684 80.8427 4.38841C82.3628 4.9965 79.8823 15.7819 78.458 18.0702ZM98.3488 18.2302C98.0126 15.6699 97.9968 4.22839 100.733 4.54844C102.253 5.14054 99.773 15.9419 98.3488 18.2302ZM120.304 3.70035C122.816 3.4443 122.704 14.4057 117.679 21.3186C117.023 18.8223 116.031 4.56446 120.304 3.70035ZM130.865 27.3034C130.065 23.2229 132.145 20.5505 134.29 20.2625C135.042 20.1505 136.13 20.6305 136.338 21.5427C136.69 23.2549 136.29 25.7992 131.473 29.0156C131.489 29.0316 131.041 28.1995 130.865 27.3034ZM45.75 14.7258C47.4622 14.7258 48.8543 13.3336 48.8543 11.6214C48.8543 9.90915 47.4622 8.51696 45.75 8.51696C44.0378 8.51696 42.6454 9.90915 42.6454 11.6214C42.6454 13.3336 44.0378 14.7258 45.75 14.7258Z" fill="white"/>
</g>
<defs>
<clipPath id="clip0">
<rect width="150" height="36.5854" fill="white"/>
</clipPath>
</defs>
</svg>
