<svg width="438" height="34" viewBox="0 0 438 34" fill="none" xmlns="http://www.w3.org/2000/svg">
<path d="M15.29 5.5V16.07H3.95V5.5H0.1V30H3.95V19.64H15.29V30H19.14V5.5H15.29ZM31.7072 11.485C27.5772 11.485 22.2922 14.635 22.2922 20.935C22.2922 27.27 27.5772 30.35 31.7072 30.35C35.8372 30.35 41.1222 27.27 41.1222 20.935C41.1222 14.635 35.8372 11.485 31.7072 11.485ZM31.7072 14.845C34.3672 14.845 37.4472 16.875 37.4472 20.935C37.4472 24.96 34.3672 26.99 31.7072 26.99C29.0472 26.99 25.9672 24.96 25.9672 20.935C25.9672 16.875 29.0472 14.845 31.7072 14.845ZM47.8652 5.255H44.0852V8.895H47.8652V5.255ZM47.8652 11.8H44.0852V30H47.8652V11.8ZM96.4668 5.5V16.07H85.1268V5.5H81.2768V30H85.1268V19.64H96.4668V30H100.317V5.5H96.4668ZM112.289 11.485C108.334 11.485 103.469 14.635 103.469 20.9C103.469 27.27 108.334 30.35 112.289 30.35C115.404 30.35 117.994 28.46 118.449 26.64V30H122.229V11.8H118.449V14.985C117.994 13.445 115.404 11.485 112.289 11.485ZM112.849 14.845C115.684 14.845 118.624 16.84 118.624 20.9C118.624 24.995 115.684 26.99 112.849 26.99C110.014 26.99 107.144 24.96 107.144 20.9C107.144 16.875 110.014 14.845 112.849 14.845ZM129.862 5.255H126.082V30H129.862V5.255ZM137.484 5.255H133.704V30H137.484V5.255ZM149.866 11.485C145.736 11.485 140.451 14.635 140.451 20.935C140.451 27.27 145.736 30.35 149.866 30.35C153.996 30.35 159.281 27.27 159.281 20.935C159.281 14.635 153.996 11.485 149.866 11.485ZM149.866 14.845C152.526 14.845 155.606 16.875 155.606 20.935C155.606 24.96 152.526 26.99 149.866 26.99C147.206 26.99 144.126 24.96 144.126 20.935C144.126 16.875 147.206 14.845 149.866 14.845ZM207.004 5.5V16.07H195.664V5.5H191.814V30H195.664V19.64H207.004V30H210.854V5.5H207.004ZM218.661 5.255H214.881V8.895H218.661V5.255ZM218.661 11.8H214.881V30H218.661V11.8ZM255.923 26.43V5.5H252.073V30H266.318V26.43H255.923ZM276.522 11.485C272.567 11.485 267.702 14.635 267.702 20.9C267.702 27.27 272.567 30.35 276.522 30.35C279.637 30.35 282.227 28.46 282.682 26.64V30H286.462V11.8H282.682V14.985C282.227 13.445 279.637 11.485 276.522 11.485ZM277.082 14.845C279.917 14.845 282.857 16.84 282.857 20.9C282.857 24.995 279.917 26.99 277.082 26.99C274.247 26.99 271.377 24.96 271.377 20.9C271.377 16.875 274.247 14.845 277.082 14.845ZM300.256 11.485C297.141 11.485 294.551 13.445 294.096 14.985V5.255H290.316V30H294.096V26.64C294.551 28.46 297.141 30.35 300.256 30.35C304.211 30.35 309.076 27.27 309.076 20.9C309.076 14.635 304.211 11.485 300.256 11.485ZM299.696 26.99C296.861 26.99 293.921 24.995 293.921 20.9C293.921 16.84 296.861 14.845 299.696 14.845C302.531 14.845 305.401 16.875 305.401 20.9C305.401 24.96 302.531 26.99 299.696 26.99ZM319.828 11.485C315.873 11.485 311.008 14.635 311.008 20.9C311.008 27.27 315.873 30.35 319.828 30.35C322.943 30.35 325.533 28.46 325.988 26.64V30H329.768V11.8H325.988V14.985C325.533 13.445 322.943 11.485 319.828 11.485ZM320.388 14.845C323.223 14.845 326.163 16.84 326.163 20.9C326.163 24.995 323.223 26.99 320.388 26.99C317.553 26.99 314.683 24.96 314.683 20.9C314.683 16.875 317.553 14.845 320.388 14.845ZM342.406 16.665L345.556 15.79C344.576 13.2 342.406 11.485 339.256 11.485C336.001 11.485 333.271 13.445 333.271 16.525C333.271 18.8 334.741 20.62 338.101 21.81L340.166 22.545C341.706 23.105 342.546 23.84 342.546 24.96C342.546 26.43 341.076 27.34 339.431 27.34C337.506 27.34 336.106 26.15 335.581 24.505L332.571 25.415C333.271 28.53 335.861 30.385 339.431 30.385C342.966 30.385 346.221 28.53 346.221 24.89C346.221 21.705 343.876 20.55 341.006 19.535L339.011 18.835C337.541 18.31 336.911 17.54 336.911 16.56C336.911 15.335 337.996 14.53 339.396 14.53C340.761 14.53 341.776 15.265 342.406 16.665ZM382.942 11.03C382.942 8.405 384.762 6.83 387.177 6.83C389.557 6.83 391.412 8.405 391.412 11.03C391.412 13.655 389.557 15.23 387.177 15.23C384.762 15.23 382.942 13.655 382.942 11.03ZM395.892 11.03C395.892 6.27 392.077 2.84 387.177 2.84C382.242 2.84 378.427 6.27 378.427 11.03C378.427 15.755 382.242 19.22 387.177 19.22C392.077 19.22 395.892 15.755 395.892 11.03ZM387.387 21.81H382.767V32.45H404.712V28.775H387.387V21.81ZM403.557 10.015V0.774999H398.937V24.225H403.557V13.795H407.827V10.015H403.557ZM432.709 20.095H437.329V0.774999H432.709V3.645H425.044V7.145H432.709V9.21H425.044V12.71H432.709V20.095ZM428.614 14.075C424.834 14.775 421.404 14.985 416.854 15.055V2.42H412.234V18.8H414.859C420.634 18.8 424.694 18.625 429.104 17.75L428.614 14.075ZM426.444 29.475C422.209 29.475 420.004 28.635 420.004 26.815C420.004 24.96 422.209 24.12 426.444 24.12C430.644 24.12 432.849 24.96 432.849 26.815C432.849 28.635 430.644 29.475 426.444 29.475ZM426.444 20.515C419.584 20.515 415.384 22.825 415.384 26.815C415.384 30.735 419.584 33.045 426.444 33.045C433.269 33.045 437.469 30.735 437.469 26.815C437.469 22.825 433.269 20.515 426.444 20.515Z" fill="white"/>
<path d="M64.4568 22.3C66.1368 22.3 67.6068 21.075 67.6068 19.185C67.6068 17.295 66.1368 16.035 64.4568 16.035C62.8118 16.035 61.3418 17.295 61.3418 19.185C61.3418 21.075 62.8118 22.3 64.4568 22.3ZM174.994 22.3C176.674 22.3 178.144 21.075 178.144 19.185C178.144 17.295 176.674 16.035 174.994 16.035C173.349 16.035 171.879 17.295 171.879 19.185C171.879 21.075 173.349 22.3 174.994 22.3ZM235.253 22.3C236.933 22.3 238.403 21.075 238.403 19.185C238.403 17.295 236.933 16.035 235.253 16.035C233.608 16.035 232.138 17.295 232.138 19.185C232.138 21.075 233.608 22.3 235.253 22.3ZM361.957 22.3C363.637 22.3 365.107 21.075 365.107 19.185C365.107 17.295 363.637 16.035 361.957 16.035C360.312 16.035 358.842 17.295 358.842 19.185C358.842 21.075 360.312 22.3 361.957 22.3Z" fill="#D2FF01"/>
</svg>
