<svg width="150" height="37" viewBox="0 0 150 37" fill="none" xmlns="http://www.w3.org/2000/svg">
<g clip-path="url(#clip0)">
<path d="M147.833 34.5642C147.925 34.5651 148.015 34.5472 148.1 34.5116C148.184 34.476 148.26 34.4235 148.323 34.3572C148.386 34.291 148.435 34.2125 148.467 34.1266C148.498 34.0407 148.512 33.9493 148.507 33.8579C148.507 33.357 148.204 33.1177 147.584 33.1177H146.583V35.7402H146.959V34.597H147.422L147.433 34.6109L148.152 35.7402H148.554L147.781 34.5714L147.833 34.5642ZM147.397 34.3015H146.96V33.4149H147.514C147.8 33.4149 148.126 33.4616 148.126 33.8362C148.126 34.267 147.796 34.3015 147.395 34.3015H147.397ZM1.04218 5.88879H6.60394V26.1478H16.9004V31.2804H1.04218V5.88879ZM19.3593 14.0642H24.7024V31.271H19.3593V14.0642ZM22.0308 5.50977C22.6438 5.50988 23.243 5.69175 23.7527 6.0324C24.2623 6.37305 24.6595 6.85716 24.894 7.42353C25.1285 7.98991 25.1898 8.6131 25.0702 9.21431C24.9505 9.81552 24.6553 10.3677 24.2218 10.8012C23.7883 11.2346 23.236 11.5297 22.6348 11.6493C22.0335 11.7688 21.4104 11.7074 20.844 11.4728C20.2777 11.2382 19.7936 10.8409 19.4531 10.3312C19.1125 9.82152 18.9308 9.22228 18.9308 8.60928C18.9308 8.2022 19.011 7.79911 19.1668 7.42302C19.3226 7.04693 19.5509 6.70522 19.8388 6.4174C20.1267 6.12957 20.4684 5.90128 20.8445 5.74554C21.2206 5.58981 21.6238 5.50969 22.0308 5.50977ZM47.0529 5.88489H52.396V21.0597L58.4514 14.0564H65.0022L57.9895 22.0225L64.8547 31.2782H58.1392L52.4672 22.7728H52.3971V31.2771H47.0541L47.0529 5.88489ZM27.665 14.0659H32.7959V16.4173H32.8689C33.3814 15.5393 34.1227 14.8169 35.0138 14.3274C35.9048 13.8379 36.9121 13.5995 37.928 13.6379C43.3462 13.6379 44.3436 17.2027 44.3436 21.8338V31.2699H39.0005V22.9041C39.0005 20.9072 38.9638 18.3403 36.2177 18.3403C33.4404 18.3403 33.0119 20.5148 33.0119 22.7589V31.2676H27.6689L27.665 14.0659Z" fill="white"/>
<path d="M76.2543 20.6661C76.2645 20.2327 76.1867 19.8016 76.0254 19.3991C75.8641 18.9966 75.6228 18.6311 75.3161 18.3246C75.0094 18.0181 74.6437 17.777 74.2411 17.616C73.8385 17.455 73.4074 17.3775 72.9739 17.388C72.0404 17.3299 71.1214 17.641 70.415 18.2542C69.7087 18.8674 69.2717 19.7337 69.1982 20.6661H76.2543ZM80.7803 28.2911C79.8924 29.3678 78.7762 30.2335 77.5125 30.8256C76.2488 31.4177 74.8692 31.7214 73.4737 31.7145C68.1307 31.7145 63.8529 28.1481 63.8529 22.6253C63.8529 17.1025 68.1301 13.5377 73.4737 13.5377C78.4678 13.5377 81.5996 17.0997 81.5996 22.6253V24.3005H69.1982C69.3526 25.2506 69.8451 26.1129 70.5851 26.7285C71.3251 27.3441 72.2626 27.6716 73.2249 27.6505C73.9854 27.6458 74.7327 27.4509 75.3986 27.0837C76.0646 26.7164 76.6282 26.1884 77.038 25.5478L80.7803 28.2911ZM92.7365 18.2234C90.0649 18.2234 88.462 20.0072 88.462 22.6063C88.462 25.2055 90.0644 26.991 92.7365 26.991C95.4085 26.991 97.0148 25.21 97.0148 22.6063C97.0148 20.0027 95.4113 18.2234 92.7365 18.2234ZM101.934 31.2676H97.0148V28.9857H96.9419C96.3248 29.8157 95.5244 30.492 94.603 30.962C93.6816 31.4319 92.6642 31.6828 91.63 31.6951C86.4962 31.6951 83.1146 27.99 83.1146 22.7505C83.1146 17.9384 86.1072 13.5198 91.0267 13.5198C93.2379 13.5198 95.3033 14.1248 96.515 15.8018H96.5851V5.8832H101.933L101.934 31.2676ZM138.004 31.2776H132.661V22.9102C132.661 20.9149 132.626 18.3464 129.882 18.3464C127.099 18.3464 126.674 20.5203 126.674 22.765V31.2771H121.331V14.0703H126.46V16.4218H126.532C127.045 15.5441 127.787 14.8221 128.678 14.3326C129.569 13.8431 130.576 13.6046 131.593 13.6423C137.008 13.6423 138.006 17.2043 138.006 21.8383L138.004 31.2776ZM115.302 11.7182C114.689 11.7183 114.089 11.5366 113.579 11.196C113.069 10.8554 112.672 10.3712 112.437 9.80468C112.202 9.23816 112.141 8.61473 112.26 8.01325C112.38 7.41176 112.675 6.85923 113.108 6.42552C113.542 5.99181 114.094 5.69641 114.696 5.57666C115.297 5.45692 115.921 5.51821 116.487 5.75278C117.054 5.98736 117.538 6.38469 117.879 6.89453C118.22 7.40436 118.402 8.0038 118.402 8.61705C118.402 9.02423 118.322 9.42744 118.166 9.80365C118.01 10.1799 117.782 10.5217 117.494 10.8097C117.206 11.0977 116.865 11.3261 116.488 11.482C116.112 11.6379 115.709 11.7182 115.302 11.7182ZM117.973 31.2776H112.625V14.0703H117.973V31.2776ZM140.668 0.55519H109.94C109.242 0.54732 108.57 0.816662 108.071 1.30403C107.573 1.7914 107.287 2.45692 107.279 3.15435V34.0098C107.287 34.7076 107.572 35.3736 108.071 35.8614C108.57 36.3493 109.242 36.6192 109.94 36.6118H140.668C141.367 36.6205 142.041 36.3514 142.542 35.8636C143.043 35.3757 143.33 34.709 143.339 34.0098V3.15213C143.329 2.45331 143.043 1.78704 142.542 1.29968C142.041 0.812321 141.367 0.543747 140.668 0.552964V0.55519ZM147.443 31.9494C146.793 31.9557 146.172 32.2191 145.715 32.6821C145.259 33.1451 145.005 33.7699 145.008 34.42C145.011 35.0701 145.271 35.6925 145.732 36.1511C146.193 36.6097 146.817 36.8671 147.467 36.8671C148.117 36.8671 148.74 36.6097 149.201 36.1511C149.662 35.6925 149.922 35.0701 149.926 34.42C149.929 33.7699 149.674 33.1451 149.218 32.6821C148.762 32.2191 148.14 31.9557 147.49 31.9494H147.443ZM147.443 36.5856C147.017 36.5927 146.598 36.4732 146.239 36.2422C145.881 36.0112 145.599 35.6791 145.429 35.2879C145.259 34.8967 145.21 34.464 145.286 34.0444C145.362 33.6248 145.561 33.2373 145.857 32.9307C146.154 32.6242 146.535 32.4125 146.951 32.3224C147.368 32.2322 147.802 32.2677 148.199 32.4243C148.596 32.5809 148.937 32.8516 149.18 33.2022C149.422 33.5528 149.556 33.9675 149.563 34.3938V34.43C149.575 34.9894 149.364 35.5306 148.977 35.9346C148.59 36.3386 148.059 36.5724 147.499 36.5845H147.444" fill="white"/>
</g>
<defs>
<clipPath id="clip0">
<rect width="150" height="36.9355" fill="white"/>
</clipPath>
</defs>
</svg>
