<svg width="1600" height="936" viewBox="0 0 1600 936" fill="none" xmlns="http://www.w3.org/2000/svg">
<rect x="110.049" y="-898" width="63.8392" height="1401.6" transform="rotate(15 110.049 -898)" fill="url(#paint0_linear)"/>
<rect x="233.377" y="-864.954" width="63.8392" height="1401.6" transform="rotate(15 233.377 -864.954)" fill="url(#paint1_linear)"/>
<rect x="356.705" y="-831.909" width="63.8392" height="1354.22" transform="rotate(15 356.705 -831.909)" fill="url(#paint2_linear)"/>
<rect x="480.033" y="-798.863" width="63.8392" height="1305.27" transform="rotate(15 480.033 -798.863)" fill="url(#paint3_linear)"/>
<rect x="603.36" y="-765.818" width="63.8392" height="1401.6" transform="rotate(15 603.36 -765.818)" fill="url(#paint4_linear)"/>
<rect x="726.688" y="-732.772" width="63.8392" height="1387.94" transform="rotate(15 726.688 -732.772)" fill="url(#paint5_linear)"/>
<rect x="850.016" y="-699.726" width="63.8392" height="1355.05" transform="rotate(15 850.016 -699.726)" fill="url(#paint6_linear)"/>
<rect x="973.344" y="-666.681" width="63.8392" height="1328.47" transform="rotate(15 973.344 -666.681)" fill="url(#paint7_linear)"/>
<rect x="1096.67" y="-633.635" width="63.8392" height="1401.6" transform="rotate(15 1096.67 -633.635)" fill="url(#paint8_linear)"/>
<rect x="1220" y="-600.59" width="63.8392" height="1360.89" transform="rotate(15 1220 -600.59)" fill="url(#paint9_linear)"/>
<rect x="1343.33" y="-567.544" width="63.8392" height="1303.61" transform="rotate(15 1343.33 -567.544)" fill="url(#paint10_linear)"/>
<rect x="1466.66" y="-534.498" width="63.8392" height="1364.03" transform="rotate(15 1466.66 -534.498)" fill="url(#paint11_linear)"/>
<rect x="1589.98" y="-501.453" width="63.8392" height="1304.52" transform="rotate(15 1589.98 -501.453)" fill="url(#paint12_linear)"/>
<rect x="1713.31" y="-468.407" width="63.8392" height="1340.76" transform="rotate(15 1713.31 -468.407)" fill="url(#paint13_linear)"/>
<rect x="1836.64" y="-435.362" width="63.8392" height="1307.27" transform="rotate(15 1836.64 -435.362)" fill="url(#paint14_linear)"/>
<rect x="171.713" y="-881.477" width="63.8392" height="1401.6" transform="rotate(15 171.713 -881.477)" fill="url(#paint15_linear)"/>
<rect x="295.041" y="-848.432" width="63.8392" height="1401.6" transform="rotate(15 295.041 -848.432)" fill="url(#paint16_linear)"/>
<rect x="418.369" y="-815.386" width="63.8392" height="1401.6" transform="rotate(15 418.369 -815.386)" fill="url(#paint17_linear)"/>
<rect x="541.697" y="-782.34" width="63.8392" height="1401.6" transform="rotate(15 541.697 -782.34)" fill="url(#paint18_linear)"/>
<rect x="665.024" y="-749.295" width="63.8392" height="1401.6" transform="rotate(15 665.024 -749.295)" fill="url(#paint19_linear)"/>
<rect x="788.352" y="-716.249" width="63.8392" height="1401.6" transform="rotate(15 788.352 -716.249)" fill="url(#paint20_linear)"/>
<rect x="911.68" y="-683.204" width="63.8392" height="1401.6" transform="rotate(15 911.68 -683.204)" fill="url(#paint21_linear)"/>
<rect x="1035.01" y="-650.158" width="63.8392" height="1401.6" transform="rotate(15 1035.01 -650.158)" fill="url(#paint22_linear)"/>
<rect x="1158.34" y="-617.112" width="63.8392" height="1401.6" transform="rotate(15 1158.34 -617.112)" fill="url(#paint23_linear)"/>
<rect x="1281.66" y="-584.067" width="63.8392" height="1401.6" transform="rotate(15 1281.66 -584.067)" fill="url(#paint24_linear)"/>
<rect x="1404.99" y="-551.021" width="63.8392" height="1401.6" transform="rotate(15 1404.99 -551.021)" fill="url(#paint25_linear)"/>
<rect x="1528.32" y="-517.976" width="63.8392" height="1401.6" transform="rotate(15 1528.32 -517.976)" fill="url(#paint26_linear)"/>
<rect x="1651.65" y="-484.93" width="63.8392" height="1401.6" transform="rotate(15 1651.65 -484.93)" fill="url(#paint27_linear)"/>
<rect x="1774.97" y="-451.885" width="63.8392" height="1401.6" transform="rotate(15 1774.97 -451.885)" fill="url(#paint28_linear)"/>
<defs>
<linearGradient id="paint0_linear" x1="141.969" y1="-898" x2="141.969" y2="503.603" gradientUnits="userSpaceOnUse">
<stop stop-color="#CF1DDB"/>
<stop offset="0.859375" stop-color="#6116EB"/>
<stop offset="1" stop-color="#160133"/>
</linearGradient>
<linearGradient id="paint1_linear" x1="265.297" y1="-864.954" x2="265.297" y2="536.648" gradientUnits="userSpaceOnUse">
<stop stop-color="#CF1DDB"/>
<stop offset="0.859375" stop-color="#6116EB"/>
<stop offset="1" stop-color="#160133"/>
</linearGradient>
<linearGradient id="paint2_linear" x1="388.624" y1="-831.909" x2="388.624" y2="522.309" gradientUnits="userSpaceOnUse">
<stop stop-color="#CF1DDB"/>
<stop offset="0.859375" stop-color="#6116EB"/>
<stop offset="1" stop-color="#160133"/>
</linearGradient>
<linearGradient id="paint3_linear" x1="511.952" y1="-798.863" x2="511.952" y2="506.404" gradientUnits="userSpaceOnUse">
<stop stop-color="#CF1DDB"/>
<stop offset="0.859375" stop-color="#6116EB"/>
<stop offset="1" stop-color="#160133"/>
</linearGradient>
<linearGradient id="paint4_linear" x1="635.28" y1="-765.818" x2="635.28" y2="635.785" gradientUnits="userSpaceOnUse">
<stop stop-color="#CF1DDB"/>
<stop offset="0.859375" stop-color="#6116EB"/>
<stop offset="1" stop-color="#160133"/>
</linearGradient>
<linearGradient id="paint5_linear" x1="758.608" y1="-732.772" x2="758.608" y2="655.165" gradientUnits="userSpaceOnUse">
<stop stop-color="#CF1DDB"/>
<stop offset="0.859375" stop-color="#6116EB"/>
<stop offset="1" stop-color="#160133"/>
</linearGradient>
<linearGradient id="paint6_linear" x1="881.936" y1="-699.726" x2="881.936" y2="655.319" gradientUnits="userSpaceOnUse">
<stop stop-color="#CF1DDB"/>
<stop offset="0.859375" stop-color="#6116EB"/>
<stop offset="1" stop-color="#160133"/>
</linearGradient>
<linearGradient id="paint7_linear" x1="1005.26" y1="-666.681" x2="1005.26" y2="661.789" gradientUnits="userSpaceOnUse">
<stop stop-color="#CF1DDB"/>
<stop offset="0.859375" stop-color="#6116EB"/>
<stop offset="1" stop-color="#160133"/>
</linearGradient>
<linearGradient id="paint8_linear" x1="1128.59" y1="-633.635" x2="1128.59" y2="767.967" gradientUnits="userSpaceOnUse">
<stop stop-color="#CF1DDB"/>
<stop offset="0.859375" stop-color="#6116EB"/>
<stop offset="1" stop-color="#160133"/>
</linearGradient>
<linearGradient id="paint9_linear" x1="1251.92" y1="-600.59" x2="1251.92" y2="760.303" gradientUnits="userSpaceOnUse">
<stop stop-color="#CF1DDB"/>
<stop offset="0.859375" stop-color="#6116EB"/>
<stop offset="1" stop-color="#160133"/>
</linearGradient>
<linearGradient id="paint10_linear" x1="1375.25" y1="-567.544" x2="1375.25" y2="736.069" gradientUnits="userSpaceOnUse">
<stop stop-color="#CF1DDB"/>
<stop offset="0.859375" stop-color="#6116EB"/>
<stop offset="1" stop-color="#160133"/>
</linearGradient>
<linearGradient id="paint11_linear" x1="1498.57" y1="-534.498" x2="1498.57" y2="829.528" gradientUnits="userSpaceOnUse">
<stop stop-color="#CF1DDB"/>
<stop offset="0.859375" stop-color="#6116EB"/>
<stop offset="1" stop-color="#160133"/>
</linearGradient>
<linearGradient id="paint12_linear" x1="1621.9" y1="-501.453" x2="1621.9" y2="803.063" gradientUnits="userSpaceOnUse">
<stop stop-color="#CF1DDB"/>
<stop offset="0.859375" stop-color="#6116EB"/>
<stop offset="1" stop-color="#160133"/>
</linearGradient>
<linearGradient id="paint13_linear" x1="1745.23" y1="-468.407" x2="1745.23" y2="872.354" gradientUnits="userSpaceOnUse">
<stop stop-color="#CF1DDB"/>
<stop offset="0.859375" stop-color="#6116EB"/>
<stop offset="1" stop-color="#160133"/>
</linearGradient>
<linearGradient id="paint14_linear" x1="1868.56" y1="-435.362" x2="1868.56" y2="871.91" gradientUnits="userSpaceOnUse">
<stop stop-color="#CF1DDB"/>
<stop offset="0.859375" stop-color="#6116EB"/>
<stop offset="1" stop-color="#160133"/>
</linearGradient>
<linearGradient id="paint15_linear" x1="203.633" y1="-881.477" x2="203.633" y2="520.125" gradientUnits="userSpaceOnUse">
<stop stop-color="#3E0090"/>
<stop offset="1" stop-color="#160033"/>
</linearGradient>
<linearGradient id="paint16_linear" x1="326.96" y1="-848.432" x2="326.96" y2="553.171" gradientUnits="userSpaceOnUse">
<stop stop-color="#3E0090"/>
<stop offset="1" stop-color="#160033"/>
</linearGradient>
<linearGradient id="paint17_linear" x1="450.288" y1="-815.386" x2="450.288" y2="586.217" gradientUnits="userSpaceOnUse">
<stop stop-color="#3E0090"/>
<stop offset="1" stop-color="#160033"/>
</linearGradient>
<linearGradient id="paint18_linear" x1="573.616" y1="-782.34" x2="573.616" y2="619.262" gradientUnits="userSpaceOnUse">
<stop stop-color="#3E0090"/>
<stop offset="1" stop-color="#160033"/>
</linearGradient>
<linearGradient id="paint19_linear" x1="696.944" y1="-749.295" x2="696.944" y2="652.308" gradientUnits="userSpaceOnUse">
<stop stop-color="#3E0090"/>
<stop offset="1" stop-color="#160033"/>
</linearGradient>
<linearGradient id="paint20_linear" x1="820.272" y1="-716.249" x2="820.272" y2="685.353" gradientUnits="userSpaceOnUse">
<stop stop-color="#3E0090"/>
<stop offset="1" stop-color="#160033"/>
</linearGradient>
<linearGradient id="paint21_linear" x1="943.6" y1="-683.204" x2="943.6" y2="718.399" gradientUnits="userSpaceOnUse">
<stop stop-color="#3E0090"/>
<stop offset="1" stop-color="#160033"/>
</linearGradient>
<linearGradient id="paint22_linear" x1="1066.93" y1="-650.158" x2="1066.93" y2="751.444" gradientUnits="userSpaceOnUse">
<stop stop-color="#3E0090"/>
<stop offset="1" stop-color="#160033"/>
</linearGradient>
<linearGradient id="paint23_linear" x1="1190.26" y1="-617.112" x2="1190.26" y2="784.49" gradientUnits="userSpaceOnUse">
<stop stop-color="#3E0090"/>
<stop offset="1" stop-color="#160033"/>
</linearGradient>
<linearGradient id="paint24_linear" x1="1313.58" y1="-584.067" x2="1313.58" y2="817.536" gradientUnits="userSpaceOnUse">
<stop stop-color="#3E0090"/>
<stop offset="1" stop-color="#160033"/>
</linearGradient>
<linearGradient id="paint25_linear" x1="1436.91" y1="-551.021" x2="1436.91" y2="850.581" gradientUnits="userSpaceOnUse">
<stop stop-color="#3E0090"/>
<stop offset="1" stop-color="#160033"/>
</linearGradient>
<linearGradient id="paint26_linear" x1="1560.24" y1="-517.976" x2="1560.24" y2="883.627" gradientUnits="userSpaceOnUse">
<stop stop-color="#3E0090"/>
<stop offset="1" stop-color="#160033"/>
</linearGradient>
<linearGradient id="paint27_linear" x1="1683.57" y1="-484.93" x2="1683.57" y2="916.672" gradientUnits="userSpaceOnUse">
<stop stop-color="#3E0090"/>
<stop offset="1" stop-color="#160033"/>
</linearGradient>
<linearGradient id="paint28_linear" x1="1806.89" y1="-451.884" x2="1806.89" y2="949.718" gradientUnits="userSpaceOnUse">
<stop stop-color="#3E0090"/>
<stop offset="1" stop-color="#160033"/>
</linearGradient>
</defs>
</svg>
